<svg width="24" height="25" viewBox="0 0 24 25" fill="none" xmlns="http://www.w3.org/2000/svg">
<path d="M9.83359 10.6748C9.8342 10.6941 9.83483 10.7117 9.83544 10.7275C9.83663 10.7584 9.83777 10.7825 9.83864 10.7994L9.83973 10.8192L9.84007 10.8249L9.84018 10.8267L9.84022 10.8274C9.84023 10.8276 9.84025 10.8278 10.3392 10.7958L9.84025 10.8278L10.839 10.78C10.8374 10.7305 10.8353 10.6814 10.8328 10.6327C10.8313 10.5848 10.8299 10.5244 10.8292 10.4526C10.8271 10.2455 10.8302 9.9441 10.8516 9.57345C10.8945 8.83077 11.0103 7.81729 11.3006 6.73047C11.883 4.54984 13.1453 2.14473 15.8567 0.960202L15.8567 0.960248L15.8632 0.957334C17.7327 0.109036 19.6371 0.530251 21.0955 1.49549C21.8245 1.97802 22.4274 2.58837 22.8418 3.22018C23.2585 3.85559 23.4646 4.48083 23.4557 5.00069C23.4458 5.27266 23.3066 5.74851 23.0065 6.42897C22.7134 7.09335 22.2933 7.89603 21.7784 8.79544C20.7494 10.5931 19.3614 12.7441 17.9075 14.8894C15.2873 18.7558 12.4717 22.5764 11.2017 24.2273C10.5948 23.5875 9.82145 22.8403 8.97709 22.0246C8.53161 21.5942 8.06637 21.1448 7.59543 20.6819C6.00157 19.1154 4.31419 17.3699 2.98058 15.5925C1.63906 13.8046 0.700999 12.0429 0.52858 10.4425C0.443512 9.65298 0.545206 8.90711 0.874389 8.20882C1.20397 7.50969 1.77537 6.82918 2.67386 6.19291C3.81965 5.40782 4.83549 5.24377 5.72378 5.43579C6.62616 5.63086 7.46789 6.209 8.21821 7.04172C9.23701 8.32074 9.7601 9.32855 9.83359 10.6748Z" stroke="#F1AAC0"/>
</svg>
