<svg width="147" height="34" viewBox="0 0 147 34" fill="none" xmlns="http://www.w3.org/2000/svg">
<g clip-path="url(#clip0)">
<path d="M4.4017 22.8129C4.48886 23.8219 4.61961 24.6994 4.70677 25.4452C5.14258 28.0774 5.5784 25.4013 5.75272 24.4361C6.71151 19.6103 7.27807 16.5832 7.53956 15.311C7.58314 14.8284 7.62672 14.5652 7.62672 14.2581C7.62672 13.249 7.62672 12.9419 7.88821 12.4594C8.1497 11.889 8.6291 11.6258 9.28282 11.6697C9.5443 11.7135 9.80579 11.8452 10.0237 12.1084C10.198 12.2839 10.2852 12.4594 10.3288 12.7226C10.3724 12.8981 10.4159 13.1613 10.5031 13.4684C10.5467 13.8194 10.7646 14.7406 10.8082 15.1355C11.4183 18.4697 12.2028 22.0671 13.423 25.0503C14.7305 28.3406 14.5997 25.0064 14.5997 25.0064C14.2511 16.8026 15.0356 9.2129 16.9967 2.32516C17.171 1.75484 17.7812 1.40387 18.3042 1.53548C18.8271 1.75484 19.1758 2.36903 19.0015 2.85161C17.1275 9.56387 16.343 16.8903 16.6917 24.8748C16.866 27.8581 16.7788 30.0955 16.6481 31.3239C16.6045 31.6748 16.5609 32.0258 16.4737 32.2452C16.4302 32.5961 16.1687 33.0787 15.6021 33.2981C15.2535 33.3858 14.8612 33.3419 14.5562 33.0787C14.3818 32.9032 14.2947 32.7716 14.1204 32.5084C13.9024 32.1574 13.4666 31.1484 13.2487 30.6658C11.8977 27.2439 10.721 23.7342 9.80579 20.3561C9.23923 18.1187 9.06491 17.8116 8.6291 20.3561L7.84463 24.7432L6.7551 30.4465C6.58077 31.28 6.45003 31.8942 6.40644 32.3329L6.23212 32.9471L6.14496 33.1665C6.10138 33.2542 6.10137 33.3858 6.10137 33.4297C5.88347 33.7806 5.27333 34.2194 4.57603 33.7806C4.48886 33.7368 4.35812 33.6052 4.27096 33.4735L4.18379 33.2542L4.09663 32.9471C4.05305 32.7716 3.92231 32.5084 3.87872 32.1574C3.7044 31.4555 3.53007 30.5342 3.26858 29.3497C3.05068 28.2529 2.74561 26.1032 2.39696 23.0323L1.52533 15.1794C1.17668 11.7574 0.91519 9.73935 0.828027 9.03742C0.784446 8.59871 0.653702 7.94064 0.522958 6.97548C0.0871439 5.08903 -0.0871816 3.50968 0.0435625 2.06193C0.0871439 1.44774 0.566539 1.00903 1.17668 1.0529C1.78682 1.14064 2.17905 1.57935 2.13547 2.14968C2.09189 3.55355 2.22263 4.69419 2.57128 6.53677C2.74561 7.41419 2.83277 8.20387 2.87635 8.77419C2.91993 9.47613 3.18142 11.4942 3.53007 14.9161L4.4017 22.8129Z" fill="white"/>
<path d="M23.7083 2.85162C23.1853 2.85162 22.8803 2.85162 22.8803 2.89549C22.7931 3.11485 22.7495 3.37807 22.6623 3.77291C22.5316 5.30839 22.6188 7.23872 22.8803 9.87098C22.9674 11.0994 23.011 11.889 23.011 12.1523C23.011 12.4594 23.011 12.9858 23.011 13.8194C22.9674 14.5213 23.3161 14.8723 23.9262 14.8723C24.4056 14.8723 24.7978 14.8723 25.1901 14.8284C25.713 14.8284 26.236 15.2232 26.236 15.7497C26.236 16.2761 25.8438 16.8026 25.3208 16.8026C24.9286 16.8465 24.4056 16.8465 23.839 16.8465C23.1853 16.8465 22.8367 17.1974 22.7931 17.8555C22.6623 22.4181 22.5316 26.2348 22.7495 28.9548C22.7931 29.7884 22.8367 30.4465 23.011 30.8852C23.011 30.929 23.0546 31.0168 23.0546 31.1045C23.0546 31.1923 23.3161 31.3678 23.839 31.4555C24.885 31.5871 26.1053 31.4555 27.5435 31.3678C28.2843 31.3239 28.8073 31.28 29.156 31.28C29.679 31.28 30.1583 31.7187 30.1583 32.289C30.1583 32.8155 29.7225 33.2981 29.156 33.2981C28.8509 33.2981 28.3715 33.3419 27.6742 33.3858C26.8026 33.4297 26.1489 33.4736 25.8002 33.4736C24.1877 33.5613 22.9238 33.4297 22.0958 33.0348C21.4421 32.7716 21.2242 32.1574 21.0498 31.4116C20.9191 30.8852 20.7883 30.1394 20.7448 29.1742C20.5269 26.1471 20.6576 21.8477 20.7883 18.5574C20.8319 16.9342 20.8755 15.5742 20.9191 14.4336C20.9627 13.3368 20.9627 12.591 20.9627 12.1961C20.9627 11.9768 20.9191 11.3187 20.8319 10.1342C20.5704 7.4142 20.4833 5.22065 20.614 3.6413C20.7448 2.58839 20.9627 1.62323 21.7036 1.14065C21.9215 1.00904 22.183 0.921297 22.5752 0.877426H25.7566C28.11 0.965168 29.4175 1.00904 29.5918 0.965168C30.2019 0.921297 30.6377 1.31614 30.6813 1.84259C30.7249 2.14968 30.6377 2.36904 30.4634 2.58839C30.2455 2.80775 30.0276 2.89549 29.7661 2.93936C29.5046 2.98323 28.1536 2.93936 25.6695 2.85162H23.6211H23.7083Z" fill="white"/>
<path d="M34.5601 2.14967C34.3421 6.62451 34.3421 11.5381 34.4729 17.8994C34.5165 21.0581 34.5165 23.5148 34.5165 25.0942C34.5165 27.1561 34.5165 28.3845 34.5601 28.7355C34.6036 29.4813 34.6472 30.1394 34.778 30.6219C34.778 30.7097 34.8215 30.7535 34.8215 30.8852C34.8651 31.0168 35.1266 31.1923 35.606 31.2361C36.0854 31.28 36.6955 31.3239 37.48 31.28C39.2233 31.1923 40.4435 31.2361 41.0537 31.3677C41.6202 31.4994 41.9253 32.0258 41.751 32.5961C41.6202 33.1665 41.0973 33.4735 40.5307 33.2981C40.0949 33.2103 39.1361 33.2103 37.5672 33.2981C35.9111 33.3419 34.6908 33.2103 33.9063 32.8594C32.8604 32.289 32.5989 30.7097 32.5553 28.8671C32.5117 28.5161 32.5117 27.2439 32.5117 25.1381C32.5117 23.5148 32.5117 21.1019 32.4681 17.8555C32.381 11.4503 32.381 6.66838 32.5553 2.06193C32.5553 1.49161 33.0347 1.09677 33.6013 1.09677C34.1242 1.09677 34.5601 1.62322 34.5601 2.14967Z" fill="#F1AAC0"/>
<path d="M81.2356 3.02709C80.6691 3.02709 80.4076 3.02709 80.4076 3.07096C80.3204 3.29032 80.2768 3.55354 80.1897 3.99225C80.0589 5.52774 80.1461 7.50193 80.4076 10.1781C80.4948 11.4503 80.5383 12.24 80.5383 12.5032C80.5383 12.8103 80.5383 13.3368 80.5383 14.2142C80.4948 14.9161 80.8434 15.2671 81.4971 15.2671C81.9765 15.2671 82.4123 15.2671 82.8046 15.2232C83.3711 15.2232 83.8505 15.6181 83.8505 16.1884C83.8505 16.7587 83.4583 17.2413 82.8917 17.2413C82.4995 17.2852 81.9329 17.2852 81.41 17.2852C80.7562 17.2852 80.4076 17.6361 80.364 18.2942C80.2333 22.9006 80.1025 26.7613 80.3204 29.5252C80.364 30.3587 80.4076 31.0168 80.5819 31.4994C80.5819 31.5432 80.6255 31.631 80.6255 31.7187C80.6255 31.8065 80.887 31.9819 81.41 32.0697C82.4559 32.2013 83.7198 32.0697 85.158 31.9819C85.8988 31.9381 86.4654 31.8942 86.8141 31.8942C87.3806 31.8942 87.8164 32.3329 87.8164 32.9032C87.8164 33.4735 87.3806 33.9123 86.8141 33.9123C86.509 33.9123 86.0296 33.9561 85.3323 34C84.4171 34.0439 83.8069 34.0877 83.4583 34.0877C81.8022 34.1755 80.5819 34.0439 79.7103 33.649C79.0566 33.3858 78.7951 32.7277 78.6643 31.9819C78.5336 31.4116 78.4029 30.6658 78.3593 29.7445C78.1414 26.6736 78.2721 22.3303 78.4028 18.9961C78.4464 17.329 78.49 15.969 78.5336 14.8284C78.5772 13.7316 78.5772 12.9858 78.5772 12.591C78.5772 12.3716 78.5336 11.6697 78.4464 10.4852C78.1849 7.72129 78.0978 5.52774 78.2285 3.90451C78.3593 2.85161 78.5772 1.84258 79.3181 1.40387C79.536 1.27225 79.7975 1.18451 80.2333 1.14064H83.4583C85.8553 1.22838 87.1627 1.27225 87.337 1.22838C87.9472 1.18451 88.383 1.57935 88.4266 2.14967C88.4701 2.45677 88.383 2.72 88.2087 2.89548C87.9907 3.11483 87.7728 3.20258 87.5114 3.24645C87.2499 3.29032 85.8553 3.24645 83.3711 3.15871H81.2792H81.2356V3.02709Z" fill="#F1AAC0"/>
<path d="M90.3878 24.5677C90.4314 23.2516 90.4749 22.4181 90.4749 21.9794C90.78 14.5213 90.7364 8.02839 90.257 2.58839C90.2135 2.50065 90.1699 2.36904 90.0827 2.23742C89.9084 1.6671 90.257 1.14065 90.8236 0.965165C95.0074 -0.0877379 98.3632 1.00904 100.281 3.72904C102.155 6.22968 102.024 10.0903 99.6706 13.0736C98.4503 14.609 97.0557 15.8374 95.3996 16.7148C94.8331 17.0219 94.6587 17.5045 94.9638 18.1187C95.6611 19.391 96.4456 21.0142 97.2736 22.9884C97.5351 23.471 98.1017 25.0065 99.104 27.5948C99.8014 29.4374 100.411 30.8852 100.978 31.9381C101.327 32.5084 101.152 33.0348 100.629 33.3419C100.106 33.649 99.4963 33.4297 99.1912 32.991C98.4939 31.8503 97.8402 30.3148 97.0993 28.3845C95.7483 24.6994 94.8331 22.5058 93.8307 20.5755C93.3513 19.6103 92.5668 17.8116 92.5668 20.8826C92.5668 21.3213 92.5233 21.7161 92.5233 22.111C92.4797 22.5936 92.4797 23.4271 92.4361 24.6994C92.3925 25.9716 92.3489 26.9368 92.2618 27.551C92.2182 28.8232 92.2182 31.0168 92.3489 32.6839C92.3925 33.2542 92.0003 33.7807 91.3901 33.8245C90.8236 33.8684 90.3006 33.4736 90.257 32.8594C90.0827 31.1484 90.0827 28.7355 90.1699 27.4194L90.3878 24.5677ZM92.9591 15.311L92.9155 15.2671C93.4385 15.2671 93.7435 15.2232 94.2229 14.96C97.2736 13.4245 99.3655 10.4852 99.5399 8.02839C99.5834 6.75613 99.322 5.70323 98.6682 4.91355C97.6223 3.42194 95.7919 2.54452 93.4821 2.63226C92.7848 2.63226 92.4797 3.11484 92.4797 3.72904C92.6976 6.66839 92.7847 10.1342 92.7847 14.1265C92.7412 14.9161 92.8719 15.311 92.9591 15.311Z" fill="#F1AAC0"/>
<path d="M114.009 8.29161C114.881 4.47484 113.355 2.63226 111.133 2.63226C108.779 2.58838 106.469 4.43097 106.077 7.45806C105.685 10.3535 106.992 12.0645 110.348 15.1355C112.222 16.8903 112.701 17.3729 114.227 19.1716C115.752 20.9703 116.449 22.9006 116.667 25.1819C117.234 30.1832 114.445 33.2981 110.827 32.9471C107.254 32.5961 104.465 29.1303 104.465 23.6903C104.465 23.12 104.9 22.6813 105.467 22.6813C106.034 22.6813 106.469 23.12 106.469 23.6903C106.469 28.1652 108.692 30.7097 111.045 30.929C113.268 31.1484 115.055 29.2181 114.663 25.3574C114.445 23.471 113.878 21.9355 112.614 20.3561C111.35 18.7768 110.827 18.2503 108.997 16.5832C107.21 14.96 106.6 14.3458 105.423 12.6787C104.203 11.0116 103.811 9.2129 104.072 7.1071C104.639 3.11484 107.864 0.482579 111.133 0.52645C114.75 0.570321 117.06 3.72903 116.014 8.59871C115.883 9.16903 115.36 9.47613 114.793 9.34451C114.27 9.34451 113.965 8.86193 114.009 8.29161Z" fill="white"/>
<path d="M121.287 1.84259C121.418 5.96646 121.374 11.6697 121.113 18.8645C121.069 20.5316 121.069 22.7252 121.2 25.5329C121.331 29.0426 121.461 31.3239 121.461 32.3768C121.461 32.9471 121.026 33.3858 120.503 33.3858C119.98 33.3858 119.544 32.9471 119.544 32.3768C119.544 31.4116 119.457 29.1742 119.282 25.6207C119.152 22.769 119.152 20.4877 119.195 18.7768C119.457 11.4065 119.544 5.83485 119.369 1.93033C119.369 1.36001 119.762 0.877426 120.285 0.877426C120.808 0.877426 121.287 1.27226 121.287 1.84259Z" fill="white"/>
<path d="M125.994 30.0077C125.732 30.7097 125.689 31.1922 125.907 31.1922C126.604 31.2361 127.606 31.28 128.783 31.2361C130.962 31.1922 132.662 31.0168 133.751 30.8852C134.318 30.8413 134.884 31.1922 134.928 31.7626C134.972 32.3329 134.623 32.9032 134.056 32.9471C131.747 33.2981 127.388 33.3858 125.776 33.2542C124.774 33.2103 123.771 33.0348 123.423 32.2452C123.379 32.0697 123.335 31.8942 123.335 31.8503V31.7626C123.335 31.7187 123.335 31.7187 123.379 31.6748C123.379 31.631 123.379 31.5871 123.379 31.4993C123.379 31.4555 123.379 31.4116 123.423 31.28L123.684 30.6219L124.468 28.2968L126.953 21.2774C129.35 14.5652 130.788 10.6606 131.18 9.60773C131.224 9.60773 132.357 7.01934 132.923 5.65934C133.228 4.8258 133.446 4.16773 133.577 3.64128C133.533 3.37805 133.359 3.29031 133.185 3.29031H129.785C126.778 3.24644 124.338 3.20257 123.728 2.98322C123.161 2.80773 122.856 2.32515 123.03 1.75483C123.117 1.40386 123.379 1.14063 123.64 1.05289C124.12 0.877409 124.425 1.09676 124.861 1.09676C125.166 1.09676 125.645 1.09676 126.255 1.14063C127.432 1.18451 128.652 1.18451 129.873 1.22838H134.972C135.015 1.27225 135.059 1.27225 135.146 1.27225C135.233 1.31612 135.32 1.31612 135.364 1.35999C135.582 1.4916 135.712 1.66709 135.887 2.06192C136.061 2.63225 135.93 3.24644 135.712 3.86063C135.538 4.5187 135.32 5.35225 134.884 6.31741L133.882 8.81805C133.446 9.78322 133.228 10.3097 133.228 10.3535C132.836 11.3187 131.398 15.1793 129.001 21.8477L126.517 28.8671L125.994 30.0077Z" fill="white"/>
<path d="M139.853 2.72001C139.286 2.72001 139.025 2.72001 139.025 2.76388C138.938 2.98324 138.894 3.24646 138.807 3.6413C138.676 5.17678 138.763 7.10711 139.025 9.78324C139.112 11.0116 139.155 11.8452 139.155 12.0645C139.155 12.3716 139.155 12.8981 139.155 13.7755C139.112 14.4774 139.46 14.8284 140.114 14.8284C140.594 14.8284 140.986 14.8284 141.422 14.7845C141.945 14.7845 142.468 15.1794 142.468 15.7497C142.468 16.2761 142.075 16.8026 141.509 16.8026C141.117 16.8465 140.55 16.8465 140.027 16.8465C139.373 16.8465 139.025 17.1974 138.981 17.8555C138.85 22.4181 138.72 26.2787 138.937 28.9987C138.981 29.8323 139.025 30.4903 139.199 30.929C139.199 30.9729 139.243 31.0607 139.243 31.1484C139.243 31.2361 139.504 31.4116 140.027 31.4994C141.073 31.631 142.293 31.4994 143.731 31.4116C144.472 31.3677 145.039 31.3239 145.344 31.3239C145.867 31.3239 146.346 31.7626 146.346 32.3329C146.346 32.8594 145.911 33.3419 145.344 33.3419C145.039 33.3419 144.56 33.3858 143.862 33.4297C142.991 33.4736 142.337 33.5174 141.988 33.5174C140.376 33.6052 139.112 33.4736 138.284 33.0787C137.63 32.8155 137.412 32.2013 137.238 31.4555C137.107 30.929 136.976 30.1394 136.933 29.2181C136.715 26.191 136.846 21.8478 136.976 18.5574C137.02 16.9342 137.064 15.5742 137.107 14.4336C137.151 13.3368 137.151 12.591 137.151 12.1961C137.151 11.9768 137.107 11.3187 137.02 10.0903C136.758 7.37033 136.671 5.17678 136.802 3.55356C136.933 2.50066 137.151 1.49162 137.892 1.05291C138.109 0.921301 138.371 0.833559 138.763 0.789688H141.988C144.342 0.87743 145.649 0.921301 145.823 0.87743C146.434 0.833559 146.869 1.2284 146.913 1.75485C146.956 2.06195 146.869 2.2813 146.695 2.50066C146.477 2.72001 146.259 2.80775 145.998 2.85162C145.736 2.89549 144.385 2.85162 141.901 2.76388H139.896H139.853V2.72001Z" fill="white"/>
<path d="M65.067 32.8155C61.842 27.4193 50.598 14.6529 57.3095 7.5458C59.4886 5.30838 61.3626 6.44902 62.7572 8.77419C63.716 10.5729 64.239 12.0645 64.2826 14.1264C64.2826 14.1264 63.8467 3.94838 68.9458 0.614185C72.6066 -1.79872 76.2674 3.1587 76.2239 6.53677C76.0931 10.529 66.8103 29.4374 65.067 32.8155Z" fill="#F1AAC0"/>
<path d="M53.0386 11.6697C53.3872 20.5755 53.1257 25.2697 52.1669 28.56C51.6004 30.8413 50.7288 32.289 49.5521 33.0787C47.9395 34.0877 46.4578 33.7368 45.2811 32.3768C44.4966 31.4116 43.7557 29.8323 43.1892 27.7265C41.9253 23.12 39.7898 11.0555 43.1456 4.3871C43.8865 2.93935 45.499 1.49161 47.1115 1.14064C49.7264 0.570321 51.4261 2.23742 52.2977 4.69419C52.8642 6.18581 53.0821 8.16 53.0386 11.6697ZM51.0338 9.2129C50.9902 7.63355 50.7288 6.31742 50.3801 5.26451C49.77 3.59742 48.9419 2.72 47.5037 3.07097C46.5449 3.20258 45.4118 4.25548 44.9324 5.17677C41.9253 11.0555 43.8865 22.6813 45.0632 27.0684C45.6297 28.9548 46.1527 30.1832 46.7629 30.9729C47.373 31.5871 47.7652 31.6748 48.4189 31.28C49.8571 30.3148 50.7723 26.8929 51.0338 21.8916C51.2517 19.4348 51.0774 9.69548 51.0338 9.2129Z" fill="#F1AAC0"/>
</g>
<defs>
<clipPath id="clip0">
<rect width="147" height="34" fill="white"/>
</clipPath>
</defs>
</svg>
